# xmcd CD database file
#
# Track frame offsets:
#	150
#	11070
#	22916
#	32066
#	44239
#	55457
#	69110
#	79494
#	91732
#	102166
#	112218
#	124219
#	135752
#	158780
#	174237
#
# Disc length: 2553 seconds
#
# Revision: 0
# Processed by: cddbd v1.5.2PL0 Copyright (c) Steve Scherf et al.
# Submitted via: CDex 1.83
#
DISCID=c009f70f
DTITLE=Oscar Peterson - Plays The Harold Arlen Songbook
DYEAR=1959
DGENRE=Jazz
TTITLE0=As Long As I Live
TTITLE1=Come Rain Or Come Shine
TTITLE2=Ac-Cent-Tchu-Ate The Positive
TTITLE3=Between The Devil And The Deep Blue Sea
TTITLE4=I've Got The World On A String
TTITLE5=That Old Black Magic
TTITLE6=Let's Fall In Love
TTITLE7=Stormy Weather
TTITLE8=Over The Rainbow
TTITLE9=Happiness Is A Thing Called Joe
TTITLE10=The Man That Got Away
TTITLE11=Ill Wind
TTITLE12=I Gotta Right To SIng The Blues
TTITLE13=It's Only A Paper Moon
TTITLE14=Blues In The Night
EXTD=YEAR: 1959
EXTT0=
EXTT1=
EXTT2=
EXTT3=
EXTT4=
EXTT5=
EXTT6=
EXTT7=
EXTT8=
EXTT9=
EXTT10=
EXTT11=
EXTT12=
EXTT13=
EXTT14=
PLAYORDER=
